<?xml version="1.0" standalone="no"?>
<!DOCTYPE svg PUBLIC "-//W3C//DTD SVG 20010904//EN"
 "http://www.w3.org/TR/2001/REC-SVG-20010904/DTD/svg10.dtd">
<svg version="1.0" xmlns="http://www.w3.org/2000/svg"
 width="1118.000000pt" height="1070.000000pt" viewBox="0 0 1118.000000 1070.000000"
 preserveAspectRatio="xMidYMid meet">

<g transform="translate(0.000000,1070.000000) scale(0.100000,-0.100000)"
fill="#000000" stroke="none">
<path d="M5652 8539 c-117 -19 -102 -6 -969 -872 -930 -930 -868 -856 -868
-1032 0 -85 4 -108 24 -150 19 -39 117 -143 435 -463 l411 -412 515 515 515
515 -257 257 -258 258 -130 -130 -130 -130 125 -125 c69 -69 125 -130 125
-135 0 -13 -492 -505 -505 -505 -17 0 -401 392 -419 427 -20 40 -21 125 -2
161 8 15 318 329 688 699 762 760 700 710 833 676 33 -8 1354 -1332 1376
-1378 21 -45 24 -100 8 -142 -15 -42 -1334 -1361 -1384 -1384 -49 -23 -94 -24
-143 -3 -23 9 -112 90 -242 219 l-205 205 -128 -128 -127 -127 282 -282 c309
-308 334 -327 454 -339 68 -7 166 14 223 48 47 28 1590 1566 1646 1640 80 107
95 243 40 365 -24 54 -105 138 -853 885 -775 774 -830 827 -882 845 -70 26
-132 32 -198 22z"/>
<path d="M6280 3175 l0 -985 160 0 160 0 0 151 0 150 87 102 c47 56 89 103 93
105 4 2 74 -112 155 -253 l148 -255 184 0 184 0 -12 23 c-7 12 -106 185 -221
385 -116 199 -208 368 -205 375 3 7 102 129 221 271 119 142 216 259 216 262
0 2 -93 4 -207 4 l-208 -1 -217 -260 -218 -261 0 586 0 586 -160 0 -160 0 0
-985z"/>
<path d="M2250 3870 l0 -160 280 0 280 0 0 -760 0 -760 160 0 160 0 0 760 0
760 285 0 285 0 0 160 0 160 -725 0 -725 0 0 -160z"/>
<path d="M8670 3978 c-57 -39 -75 -72 -75 -138 0 -66 18 -99 75 -137 46 -32
134 -32 181 0 50 33 71 80 67 148 -7 96 -65 149 -166 149 -34 0 -59 -7 -82
-22z"/>
<path d="M7800 3715 l0 -205 -95 0 -95 0 0 -160 0 -160 95 0 95 0 0 -500 0
-500 160 0 160 0 2 498 3 497 128 3 127 3 0 159 0 160 -130 0 -130 0 0 205 0
205 -160 0 -160 0 0 -205z"/>
<path d="M4347 3530 c-57 -15 -139 -56 -188 -95 l-44 -35 -5 53 -5 52 -157 3
-158 3 0 -661 0 -660 160 0 159 0 3 418 3 417 27 47 c58 98 167 157 267 145
25 -3 53 -8 62 -12 13 -5 28 24 78 151 43 111 59 160 51 168 -14 14 -204 18
-253 6z"/>
<path d="M5122 3520 c-115 -30 -206 -84 -298 -175 -90 -90 -130 -153 -169
-270 -57 -169 -42 -355 41 -525 40 -81 60 -109 138 -185 70 -69 109 -99 167
-128 177 -87 374 -102 503 -38 43 21 83 52 120 92 l56 60 0 -43 c0 -24 3 -60
6 -80 l7 -38 158 0 159 0 0 660 0 660 -161 0 -160 0 7 -82 7 -82 -61 55 c-74
66 -138 103 -217 124 -80 20 -213 18 -303 -5z m346 -325 c67 -36 126 -101 160
-173 24 -51 27 -68 27 -172 0 -104 -3 -121 -27 -172 -34 -72 -98 -143 -163
-176 -44 -24 -61 -27 -150 -27 -95 0 -103 2 -163 34 -74 40 -130 100 -169 180
-25 50 -28 67 -28 161 0 94 3 111 27 160 74 150 191 223 348 217 71 -2 94 -8
138 -32z"/>
<path d="M8600 2850 l0 -660 160 0 160 0 -2 658 -3 657 -157 3 -158 3 0 -661z"/>
</g>
</svg>
