<?xml version="1.0" encoding="UTF-8"?>
<svg id="Layer_2" data-name="Layer 2" xmlns="http://www.w3.org/2000/svg" viewBox="0 0 800 800">
  <defs>
    <style>
      .cls-1 {
        fill: #6b27d9;
      }

      .cls-2 {
        fill: #f28f00;
      }
    </style>
  </defs>
  <g>
    <path class="cls-2" d="M90.7,368.79l-13.55-33.72c-1.25-3.05-.89-6.5,.97-9.22,1.86-2.72,4.93-4.32,8.24-4.27h35.82l-10.85,16.28h-15.19s6.51,13.02,6.51,13.02l-11.94,17.91Z"/>
    <path class="cls-1" d="M161.24,431.8c-.1,0-.19,0-.29,0l-.9-.04c-1.78-.07-3.45-.81-4.71-2.07l-57.19-57.51,7.7-7.65,54.97,55.28,53.68-53.68,7.67,7.67-55.93,55.93c-1.32,1.32-3.13,2.07-5,2.07Zm-2.68-9.75s0,0,0,0h0Z"/>
    <path class="cls-2" d="M232.17,368.79l13.55-33.72c1.25-3.05,.89-6.5-.97-9.22-1.86-2.72-4.93-4.32-8.24-4.27h-35.82s10.85,16.28,10.85,16.28h15.19s-6.51,13.02-6.51,13.02l11.94,17.91Z"/>
  </g>
  <path class="cls-1" d="M183.77,487.36h-43.97c-2.19,0-4.22-.99-5.57-2.72l-58.22-74.54c-1.88-2.4-2-5.72-.32-8.26l51.25-77.11c1.31-1.98,3.51-3.16,5.89-3.16h11.6v10.85h-9.57l-48.61,73.14,55.4,70.94h40.24l53.82-70.88-49.14-73.2h-9.05v-10.85h11.06c2.36,0,4.55,1.17,5.87,3.13l51.77,77.12c1.68,2.51,1.59,5.81-.24,8.21l-56.59,74.53c-1.33,1.75-3.43,2.79-5.63,2.79Z"/>
  <path class="cls-2" d="M160.65,392.93c-1.77,0-3.54-.66-4.91-1.99l-26.69-25.81c-2.02-1.96-2.69-4.93-1.7-7.56l27.38-72.98c1.05-2.79,3.64-4.58,6.61-4.58h.05c2.99,.02,5.59,1.85,6.6,4.67l26.47,73.39c.96,2.66,.24,5.63-1.82,7.56l-27.16,25.4c-1.36,1.27-3.09,1.91-4.83,1.91Zm-22.27-33.87l22.31,21.58,22.71-21.24-22.13-61.36-22.89,61.02Z"/>
  <g>
    <g>
      <path d="M298.01,393.53v-56.59h36.05v12.13h-23.93v8.08h18.43v12.13h-18.43v12.13h23.93v12.13h-36.05Z"/>
      <path d="M367.21,393.53v-56.59h13.1l20.7,34.68v-34.68h12.13v56.59h-13.1l-20.7-34.68v34.68h-12.13Z"/>
      <path d="M491.13,393.53h-15.85l-14.47-20.45-1.62,1.94v18.51h-12.13v-56.59h12.13v19.24l16.09-19.24h15.85l-22.39,26.68,22.39,29.91Z"/>
      <path d="M544.08,394.58c-4.53,0-8.52-1.1-11.99-3.31-3.46-2.21-6.17-5.18-8.12-8.91-1.95-3.73-2.93-7.87-2.93-12.43v-32.98h12.13v32.98c0,2.29,.43,4.38,1.29,6.28,.86,1.9,2.11,3.41,3.74,4.55s3.59,1.7,5.88,1.7c3.47,0,6.15-1.22,8.02-3.66,1.87-2.44,2.81-5.4,2.81-8.87v-32.98h12.13v32.98c0,4.55-.97,8.7-2.91,12.43-1.94,3.73-4.64,6.7-8.08,8.91-3.45,2.21-7.44,3.31-11.96,3.31Z"/>
      <path d="M599.78,393.53v-56.59h23.04c3.1,0,5.9,.78,8.41,2.34s4.49,3.66,5.96,6.28c1.47,2.63,2.2,5.52,2.2,8.67,0,3.64-.9,6.88-2.69,9.72-1.79,2.84-4.21,4.99-7.26,6.45l13.42,23.12h-13.99l-12.77-21.99h-4.2v21.99h-12.13Zm12.13-34.12h9.46c1.62,0,3-.6,4.16-1.8,1.16-1.2,1.74-2.62,1.74-4.26s-.58-3.1-1.74-4.28c-1.16-1.19-2.55-1.78-4.16-1.78h-9.46v12.13Z"/>
      <path d="M691.29,336.94h13.66l20.53,56.59h-12.85l-3.23-8.89h-22.55l-3.23,8.89h-12.85l20.53-56.59Zm0,35.57h13.66l-6.87-18.76-6.79,18.76Z"/>
    </g>
    <g>
      <path d="M298.01,464.73v-34.69h12.64c1.83,0,3.49,.38,4.97,1.13,1.48,.75,2.65,1.83,3.52,3.22,.87,1.4,1.3,3.04,1.3,4.94,0,1.27-.28,2.53-.84,3.78-.56,1.25-1.45,2.12-2.65,2.61,1.44,.36,2.53,1.09,3.27,2.17,.74,1.08,1.25,2.29,1.52,3.62s.41,2.54,.41,3.63c0,1.83-.46,3.47-1.36,4.92-.91,1.45-2.13,2.59-3.65,3.42-1.53,.83-3.22,1.25-5.07,1.25h-14.05Zm6.05-21.26h5.9c1.22,0,2.27-.38,3.13-1.14,.87-.76,1.3-1.78,1.3-3.05s-.43-2.32-1.3-3.01c-.87-.68-1.91-1.03-3.13-1.03h-5.9v8.23Zm0,16.08h7.38c1.47,0,2.72-.53,3.75-1.59,1.03-1.06,1.55-2.39,1.55-3.99,0-.93-.24-1.8-.71-2.63s-1.11-1.5-1.92-2.01-1.7-.77-2.68-.77h-7.38v10.98Z"/>
      <path d="M341.02,464.73v-34.69h6.05v28.64h14.44v6.05h-20.49Z"/>
      <path d="M395.21,465.38c-2.35,0-4.55-.47-6.62-1.4-2.07-.93-3.88-2.23-5.45-3.88-1.57-1.65-2.8-3.56-3.69-5.74-.89-2.17-1.34-4.5-1.34-6.98s.45-4.8,1.34-6.97c.89-2.17,2.12-4.08,3.69-5.74,1.57-1.65,3.39-2.94,5.45-3.88,2.06-.93,4.27-1.4,6.62-1.4s4.58,.47,6.64,1.4c2.06,.93,3.88,2.23,5.45,3.88,1.57,1.65,2.8,3.56,3.68,5.74,.88,2.17,1.33,4.5,1.33,6.97s-.44,4.8-1.33,6.98c-.88,2.17-2.11,4.08-3.68,5.74-1.57,1.65-3.39,2.94-5.45,3.88-2.07,.93-4.28,1.4-6.64,1.4Zm0-6.05c2.03,0,3.89-.54,5.56-1.62,1.68-1.08,3.01-2.53,4-4.34,.99-1.81,1.49-3.8,1.49-5.98s-.5-4.17-1.5-5.98c-1-1.81-2.33-3.25-4-4.34-1.67-1.08-3.52-1.62-5.55-1.62s-3.89,.54-5.56,1.62c-1.68,1.08-3.01,2.53-4,4.34-.99,1.81-1.49,3.8-1.49,5.98s.5,4.17,1.5,5.98c1,1.81,2.33,3.25,4,4.34,1.67,1.08,3.52,1.62,5.55,1.62Z"/>
      <path d="M447.81,465.38c-2.35,0-4.55-.47-6.62-1.4-2.06-.93-3.88-2.23-5.44-3.88-1.56-1.65-2.78-3.56-3.67-5.74-.88-2.17-1.33-4.5-1.33-6.98s.44-4.83,1.33-7c.88-2.17,2.11-4.08,3.67-5.72,1.56-1.64,3.37-2.93,5.44-3.87,2.06-.93,4.27-1.4,6.62-1.4,2.81,0,5.39,.65,7.76,1.96,2.36,1.3,4.32,3.03,5.87,5.18l-5.4,2.9c-.99-1.21-2.21-2.17-3.64-2.9-1.44-.73-2.97-1.09-4.58-1.09-2.03,0-3.88,.54-5.55,1.62-1.67,1.08-2.99,2.53-3.98,4.34-.98,1.81-1.47,3.8-1.47,5.98s.5,4.2,1.49,6,2.32,3.24,3.99,4.32,3.51,1.62,5.53,1.62c1.65,0,3.19-.37,4.62-1.1,1.43-.73,2.63-1.71,3.6-2.91l5.4,2.92c-1.55,2.16-3.51,3.89-5.87,5.19-2.36,1.3-4.95,1.94-7.76,1.94Z"/>
      <path d="M506.33,464.73h-7.88l-9.74-13.6-1.68,2.01v11.6h-6.05v-34.69h6.05v13.7l11.47-13.7h7.9l-13.75,16.35,13.68,18.34Z"/>
      <path d="M539.24,465.38c-2.35,0-4.55-.47-6.62-1.4-2.06-.93-3.88-2.23-5.44-3.88-1.56-1.65-2.78-3.56-3.67-5.74-.88-2.17-1.33-4.5-1.33-6.98s.44-4.83,1.33-7c.88-2.17,2.11-4.08,3.67-5.72,1.56-1.64,3.37-2.93,5.44-3.87,2.06-.93,4.27-1.4,6.62-1.4,2.81,0,5.39,.65,7.76,1.96,2.36,1.3,4.32,3.03,5.87,5.18l-5.4,2.9c-.99-1.21-2.21-2.17-3.64-2.9-1.44-.73-2.97-1.09-4.58-1.09-2.03,0-3.88,.54-5.55,1.62-1.67,1.08-2.99,2.53-3.98,4.34-.98,1.81-1.47,3.8-1.47,5.98s.5,4.2,1.49,6c.99,1.8,2.32,3.24,3.99,4.32,1.67,1.08,3.51,1.62,5.53,1.62,1.65,0,3.19-.37,4.62-1.1,1.43-.73,2.63-1.71,3.6-2.91l5.4,2.92c-1.55,2.16-3.51,3.89-5.87,5.19-2.36,1.3-4.95,1.94-7.76,1.94Z"/>
      <path d="M592.83,430.04h6.05v34.69h-6.05v-15.56h-14.37v15.56h-6.05v-34.69h6.05v13.08h14.37v-13.08Z"/>
      <path d="M631.29,430.04h6.96l12.61,34.69h-6.42l-2.23-6.15h-14.87l-2.23,6.15h-6.42l12.59-34.69Zm-1.73,22.5h10.43l-5.23-14.3-5.2,14.3Z"/>
      <path d="M670.66,464.73v-34.69h6.05v34.69h-6.05Z"/>
      <path d="M698.26,464.73v-34.69h6.54l14.64,23.76v-23.76h6.05v34.69h-6.52l-14.67-23.76v23.76h-6.05Z"/>
    </g>
  </g>
</svg>