<?xml version="1.0" encoding="UTF-8"?>
<svg id="Layer_2" data-name="Layer 2" xmlns="http://www.w3.org/2000/svg" viewBox="0 0 800 800">
  <defs>
    <style>
      .cls-1 {
        fill: #6b27d9;
      }

      .cls-2 {
        fill: #f28f00;
      }
    </style>
  </defs>
  <g>
    <path class="cls-2" d="M165.82,340.92l-45.06-112.15c-4.16-10.14-2.95-21.61,3.23-30.67,6.18-9.06,16.38-14.37,27.39-14.18h119.11l-36.09,54.14h-50.53s21.66,43.31,21.66,43.31l-39.7,59.55Z"/>
    <path class="cls-1" d="M400.36,550.47c-.32,0-.65,0-.97-.02l-3.01-.13c-5.91-.24-11.48-2.69-15.67-6.89l-190.17-191.22,25.59-25.45,182.81,183.82,178.5-178.5,25.52,25.52-185.99,185.99c-4.41,4.4-10.42,6.88-16.62,6.88Z"/>
    <path class="cls-2" d="M636.23,340.92l45.06-112.15c4.16-10.14,2.95-21.61-3.23-30.67-6.18-9.06-16.38-14.37-27.39-14.18h-119.11s36.09,54.14,36.09,54.14h50.53s-21.66,43.31-21.66,43.31l39.7,59.55Z"/>
  </g>
  <path class="cls-1" d="M475.31,735.22h-146.22c-7.29,0-14.04-3.29-18.52-9.04L116.96,478.29c-6.24-7.99-6.66-19.03-1.05-27.48L286.32,194.41c4.37-6.57,11.68-10.49,19.57-10.49h38.58v36.09h-31.83l-161.65,243.22,184.24,235.9h133.83l178.98-235.69-163.4-243.42h-30.08v-36.09h36.79c7.84,0,15.14,3.89,19.51,10.4l172.16,256.47c5.6,8.34,5.28,19.31-.8,27.31l-188.19,247.83c-4.41,5.81-11.41,9.29-18.71,9.29Z"/>
  <path class="cls-2" d="M398.4,421.19c-5.89,0-11.78-2.21-16.34-6.61l-88.75-85.82c-6.73-6.51-8.96-16.38-5.67-25.15L378.71,60.91c3.5-9.32,12.14-15.26,22.15-15.24,9.96,.06,18.58,6.16,21.96,15.52l88.02,244.06c3.19,8.84,.81,18.71-6.05,25.14l-90.33,84.46c-4.52,4.23-10.29,6.34-16.05,6.34Zm-74.06-112.64l74.2,71.76,75.52-70.62-73.59-204.06-76.13,202.92Z"/>
</svg>