<?xml version="1.0" encoding="UTF-8"?>
<svg id="Layer_2" data-name="Layer 2" xmlns="http://www.w3.org/2000/svg" viewBox="0 0 800 800">
  <defs>
    <style>
      .cls-1 {
        fill: #1e1e1e;
      }
    </style>
  </defs>
  <g>
    <path class="cls-1" d="M270,280.24l-24.97-62.15c-2.3-5.62-1.64-11.97,1.79-17,3.43-5.02,9.08-7.96,15.18-7.86h66l-20,30h-28s12,24,12,24l-22,33Z"/>
    <path class="cls-1" d="M399.97,396.36c-.18,0-.36,0-.54-.01l-1.67-.07c-3.27-.13-6.36-1.49-8.68-3.81l-105.39-105.97,14.18-14.1,101.3,101.86,98.92-98.92,14.14,14.14-103.06,103.06c-2.44,2.44-5.77,3.81-9.21,3.81Zm-4.93-17.96s0,0,0,0h0Z"/>
    <path class="cls-1" d="M530.67,280.24l24.97-62.15c2.3-5.62,1.64-11.97-1.79-17-3.43-5.02-9.08-7.96-15.18-7.86h-66s20,30,20,30h28s-12,24-12,24l22,33Z"/>
  </g>
  <path class="cls-1" d="M441.5,498.74h-81.03c-4.04,0-7.78-1.83-10.27-5.01l-107.28-137.37c-3.46-4.42-3.69-10.54-.59-15.22l94.44-142.09c2.42-3.64,6.47-5.81,10.84-5.81h21.38v20h-17.64l-89.58,134.78,102.09,130.72h74.16l99.18-130.61-90.55-134.89h-16.67v-20h20.39c4.35,0,8.39,2.16,10.81,5.77l95.4,142.12c3.1,4.62,2.92,10.7-.44,15.13l-104.29,137.33c-2.44,3.22-6.32,5.15-10.37,5.15Z"/>
  <path class="cls-1" d="M398.89,324.72c-3.27,0-6.53-1.22-9.05-3.67l-49.18-47.56c-3.73-3.61-4.96-9.08-3.14-13.94l50.46-134.49c1.93-5.14,6.71-8.45,12.19-8.45h.09c5.52,.04,10.29,3.41,12.17,8.6l48.78,135.24c1.77,4.91,.45,10.37-3.36,13.93l-50.05,46.8c-2.51,2.34-5.7,3.51-8.89,3.51Zm-41.04-62.42l41.12,39.76,41.85-39.13-40.78-113.08-42.19,112.44Z"/>
  <g>
    <path class="cls-1" d="M244.59,611.81v-41.3h26.31v8.85h-17.46v5.9h13.45v8.85h-13.45v8.85h17.46v8.85h-26.31Z"/>
    <path class="cls-1" d="M295.1,611.81v-41.3h9.56l15.1,25.31v-25.31h8.85v41.3h-9.56l-15.1-25.31v25.31h-8.85Z"/>
    <path class="cls-1" d="M385.54,611.81h-11.56l-10.56-14.93-1.18,1.42v13.51h-8.85v-41.3h8.85v14.04l11.74-14.04h11.56l-16.34,19.47,16.34,21.83Z"/>
    <path class="cls-1" d="M424.19,612.58c-3.3,0-6.22-.81-8.75-2.42-2.53-1.61-4.5-3.78-5.93-6.5-1.43-2.72-2.14-5.75-2.14-9.07v-24.07h8.85v24.07c0,1.67,.31,3.2,.94,4.59,.63,1.39,1.54,2.49,2.73,3.32s2.62,1.24,4.29,1.24c2.54,0,4.49-.89,5.86-2.67,1.37-1.78,2.05-3.94,2.05-6.47v-24.07h8.85v24.07c0,3.32-.71,6.35-2.12,9.07-1.42,2.72-3.38,4.89-5.9,6.5-2.52,1.61-5.43,2.42-8.73,2.42Z"/>
    <path class="cls-1" d="M464.84,611.81v-41.3h16.82c2.26,0,4.31,.57,6.14,1.71s3.28,2.67,4.35,4.59c1.07,1.92,1.61,4.03,1.61,6.33,0,2.66-.65,5.02-1.96,7.09-1.31,2.08-3.07,3.64-5.29,4.71l9.79,16.87h-10.21l-9.32-16.05h-3.07v16.05h-8.85Zm8.85-24.9h6.9c1.18,0,2.19-.44,3.04-1.31,.85-.88,1.27-1.91,1.27-3.11s-.42-2.26-1.27-3.13c-.85-.87-1.86-1.3-3.04-1.3h-6.9v8.85Z"/>
    <path class="cls-1" d="M531.63,570.51h9.97l14.99,41.3h-9.38l-2.36-6.49h-16.46l-2.36,6.49h-9.38l14.99-41.3Zm0,25.96h9.97l-5.02-13.69-4.96,13.69Z"/>
    <path class="cls-1" d="M145.52,682.61v-41.3h15.04c2.18,0,4.15,.45,5.92,1.34,1.76,.9,3.16,2.17,4.19,3.83,1.03,1.66,1.55,3.62,1.55,5.89,0,1.51-.33,3.01-1,4.5-.67,1.48-1.72,2.52-3.16,3.11,1.71,.43,3.01,1.29,3.89,2.58,.89,1.29,1.49,2.72,1.81,4.31s.49,3.02,.49,4.32c0,2.18-.54,4.13-1.62,5.86-1.08,1.72-2.53,3.08-4.35,4.07-1.82,.99-3.83,1.49-6.03,1.49h-16.73Zm7.2-25.31h7.02c1.46,0,2.7-.45,3.73-1.36,1.03-.9,1.55-2.11,1.55-3.63s-.52-2.77-1.55-3.58c-1.03-.82-2.28-1.22-3.73-1.22h-7.02v9.79Zm0,19.15h8.79c1.75,0,3.24-.63,4.47-1.89,1.23-1.26,1.84-2.84,1.84-4.75,0-1.1-.28-2.14-.84-3.13s-1.32-1.78-2.29-2.39-2.03-.92-3.19-.92h-8.79v13.07Z"/>
    <path class="cls-1" d="M196.73,682.61v-41.3h7.2v34.1h17.2v7.2h-24.4Z"/>
    <path class="cls-1" d="M261.25,683.38c-2.79,0-5.42-.56-7.88-1.67-2.46-1.11-4.62-2.65-6.49-4.62-1.87-1.97-3.33-4.24-4.4-6.83-1.06-2.59-1.59-5.35-1.59-8.3s.53-5.72,1.59-8.3c1.06-2.59,2.53-4.86,4.4-6.83,1.87-1.97,4.03-3.51,6.49-4.62,2.46-1.11,5.08-1.67,7.88-1.67s5.45,.56,7.91,1.67c2.46,1.11,4.62,2.65,6.49,4.62,1.87,1.97,3.33,4.24,4.38,6.83,1.05,2.59,1.58,5.35,1.58,8.3s-.53,5.72-1.58,8.3c-1.05,2.59-2.51,4.86-4.38,6.83-1.87,1.97-4.03,3.51-6.49,4.62-2.46,1.11-5.09,1.67-7.91,1.67Zm0-7.2c2.42,0,4.63-.64,6.62-1.93s3.58-3.01,4.76-5.16c1.18-2.15,1.77-4.53,1.77-7.12s-.59-4.97-1.79-7.12c-1.19-2.15-2.78-3.87-4.76-5.16-1.99-1.29-4.19-1.93-6.61-1.93s-4.63,.64-6.62,1.93-3.58,3.01-4.76,5.16-1.77,4.53-1.77,7.12,.59,4.97,1.79,7.12c1.19,2.15,2.78,3.87,4.76,5.16,1.99,1.29,4.19,1.93,6.61,1.93Z"/>
    <path class="cls-1" d="M323.88,683.38c-2.79,0-5.42-.56-7.88-1.67-2.46-1.11-4.62-2.65-6.47-4.62-1.86-1.97-3.31-4.24-4.37-6.83-1.05-2.59-1.58-5.35-1.58-8.3s.53-5.75,1.58-8.33c1.05-2.59,2.51-4.86,4.37-6.81,1.86-1.96,4.02-3.49,6.47-4.6,2.46-1.11,5.08-1.67,7.88-1.67,3.34,0,6.42,.78,9.23,2.33s5.14,3.61,6.99,6.17l-6.43,3.45c-1.18-1.44-2.63-2.59-4.34-3.45-1.71-.87-3.53-1.3-5.46-1.3-2.42,0-4.62,.64-6.61,1.93s-3.56,3.01-4.73,5.16c-1.17,2.15-1.76,4.53-1.76,7.12s.59,5,1.77,7.14,2.76,3.86,4.75,5.15,4.18,1.93,6.58,1.93c1.97,0,3.8-.44,5.5-1.31,1.7-.87,3.13-2.03,4.29-3.47l6.43,3.48c-1.85,2.58-4.18,4.64-6.99,6.18s-5.89,2.32-9.23,2.32Z"/>
    <path class="cls-1" d="M393.55,682.61h-9.38l-11.59-16.2-2.01,2.39v13.81h-7.2v-41.3h7.2v16.31l13.66-16.31h9.41l-16.37,19.47,16.28,21.83Z"/>
    <path class="cls-1" d="M432.73,683.38c-2.79,0-5.42-.56-7.88-1.67-2.46-1.11-4.62-2.65-6.47-4.62-1.86-1.97-3.31-4.24-4.37-6.83-1.05-2.59-1.58-5.35-1.58-8.3s.53-5.75,1.58-8.33c1.05-2.59,2.51-4.86,4.37-6.81,1.86-1.96,4.02-3.49,6.47-4.6,2.46-1.11,5.08-1.67,7.88-1.67,3.34,0,6.42,.78,9.23,2.33s5.14,3.61,6.99,6.17l-6.43,3.45c-1.18-1.44-2.63-2.59-4.34-3.45-1.71-.87-3.53-1.3-5.46-1.3-2.42,0-4.62,.64-6.61,1.93s-3.56,3.01-4.73,5.16c-1.17,2.15-1.76,4.53-1.76,7.12s.59,5,1.77,7.14,2.76,3.86,4.75,5.15,4.18,1.93,6.58,1.93c1.97,0,3.8-.44,5.5-1.31,1.7-.87,3.13-2.03,4.29-3.47l6.43,3.48c-1.85,2.58-4.18,4.64-6.99,6.18s-5.89,2.32-9.23,2.32Z"/>
    <path class="cls-1" d="M496.54,641.31h7.2v41.3h-7.2v-18.53h-17.11v18.53h-7.2v-41.3h7.2v15.58h17.11v-15.58Z"/>
    <path class="cls-1" d="M542.32,641.31h8.29l15.02,41.3h-7.64l-2.66-7.32h-17.7l-2.65,7.32h-7.64l14.99-41.3Zm-2.06,26.79h12.42l-6.22-17.02-6.19,17.02Z"/>
    <path class="cls-1" d="M589.2,682.61v-41.3h7.2v41.3h-7.2Z"/>
    <path class="cls-1" d="M622.06,682.61v-41.3h7.79l17.43,28.29v-28.29h7.2v41.3h-7.76l-17.46-28.29v28.29h-7.2Z"/>
  </g>
</svg>