<?xml version="1.0" encoding="UTF-8"?>
<svg id="Layer_2" data-name="Layer 2" xmlns="http://www.w3.org/2000/svg" viewBox="0 0 800 800">
  <defs>
    <style>
      .cls-1 {
        fill: #1e1e1e;
      }
    </style>
  </defs>
  <g>
    <path class="cls-1" d="M270,363l-24.97-62.15c-2.3-5.62-1.64-11.97,1.79-17,3.43-5.02,9.08-7.96,15.18-7.86h66l-20,30h-28s12,24,12,24l-22,33Z"/>
    <path class="cls-1" d="M399.97,479.12c-.18,0-.36,0-.54-.01l-1.67-.07c-3.27-.13-6.36-1.49-8.68-3.81l-105.39-105.97,14.18-14.1,101.3,101.86,98.92-98.92,14.14,14.14-103.06,103.06c-2.44,2.44-5.77,3.81-9.21,3.81Zm-4.93-17.96s0,0,0,0h0Z"/>
    <path class="cls-1" d="M530.68,363l24.97-62.15c2.3-5.62,1.64-11.97-1.79-17-3.43-5.02-9.08-7.96-15.18-7.86h-66s20,30,20,30h28s-12,24-12,24l22,33Z"/>
  </g>
  <path class="cls-1" d="M441.5,581.5h-81.03c-4.04,0-7.78-1.83-10.27-5.01l-107.28-137.37c-3.46-4.42-3.69-10.54-.59-15.22l94.44-142.09c2.42-3.64,6.47-5.81,10.84-5.81h21.38v20h-17.64l-89.58,134.78,102.09,130.72h74.16l99.18-130.61-90.55-134.89h-16.67v-20h20.39c4.35,0,8.39,2.16,10.81,5.77l95.4,142.12c3.1,4.62,2.92,10.7-.44,15.13l-104.29,137.33c-2.44,3.22-6.32,5.15-10.37,5.15Z"/>
  <g>
    <path class="cls-1" d="M251.6,144.01l-17.18-37.56,23.93-10.95,3.68,8.05-15.88,7.26,2.45,5.37,12.23-5.6,3.68,8.05-12.23,5.6,3.68,8.05,15.88-7.27,3.68,8.05-23.93,10.95Z"/>
    <path class="cls-1" d="M296.68,125.1l-10.92-39.83,9.22-2.53,21.26,20.42-6.69-24.41,8.54-2.34,10.92,39.83-9.22,2.53-21.26-20.42,6.69,24.41-8.54,2.34Z"/>
    <path class="cls-1" d="M383.79,108.93l-11.5,1.17-12.02-13.78-1.03,1.53,1.37,13.44-8.8,.9-4.18-41.09,8.8-.9,1.42,13.97,10.26-15.16,11.5-1.17-14.29,21.02,18.47,20.07Z"/>
    <path class="cls-1" d="M420.78,110.41c-3.3-.21-6.16-1.19-8.58-2.96-2.42-1.77-4.26-4.05-5.51-6.86-1.25-2.81-1.78-5.87-1.57-9.19l1.5-24.03,8.83,.55-1.5,24.03c-.11,1.67,.11,3.21,.66,4.64,.54,1.42,1.38,2.58,2.52,3.48,1.14,.9,2.54,1.4,4.21,1.5,2.53,.16,4.54-.61,6.01-2.3,1.47-1.69,2.29-3.8,2.45-6.33l1.5-24.03,8.83,.55-1.5,24.03c-.21,3.32-1.1,6.29-2.68,8.92-1.58,2.63-3.68,4.67-6.29,6.12s-5.57,2.08-8.87,1.87Z"/>
    <path class="cls-1" d="M459.59,114.03l9.29-40.24,16.38,3.78c2.2,.51,4.07,1.53,5.59,3.05,1.53,1.52,2.59,3.34,3.21,5.45s.66,4.29,.14,6.53c-.6,2.59-1.77,4.74-3.51,6.47-1.74,1.73-3.81,2.86-6.22,3.39l5.75,18.65-9.95-2.3-5.47-17.73-2.99-.69-3.61,15.64-8.62-1.99Zm14.23-22.27l6.73,1.55c1.15,.27,2.24,.07,3.26-.6s1.67-1.58,1.94-2.75c.27-1.19,.1-2.3-.53-3.33-.63-1.03-1.52-1.68-2.67-1.95l-6.73-1.55-1.99,8.62Z"/>
    <path class="cls-1" d="M537.89,94.2l9.2,3.84-2.07,43.89-8.66-3.61,.32-6.9-15.19-6.34-4.68,5.08-8.66-3.61,29.73-32.34Zm-10,23.96l9.2,3.84,.64-14.56-9.85,10.72Z"/>
  </g>
  <g>
    <path class="cls-1" d="M152.02,630.38l29.18-29.22,10.65,10.63c1.54,1.54,2.62,3.25,3.24,5.13s.7,3.77,.25,5.67c-.44,1.91-1.46,3.66-3.06,5.26-1.07,1.07-2.37,1.9-3.89,2.47-1.52,.58-3,.57-4.43-.03,.91,1.52,1.22,3.04,.93,4.58s-.87,2.98-1.76,4.33c-.89,1.35-1.79,2.48-2.71,3.4-1.54,1.54-3.3,2.54-5.29,3-1.98,.45-3.97,.39-5.96-.19-1.99-.58-3.76-1.65-5.32-3.21l-11.84-11.82Zm9.45,.72l6.22,6.21c1.24,1.24,2.74,1.84,4.5,1.82,1.76-.02,3.31-.71,4.66-2.06,.78-.78,1.32-1.71,1.62-2.81,.3-1.09,.32-2.19,.07-3.31-.25-1.11-.79-2.08-1.61-2.9l-6.22-6.21-9.24,9.25Zm13.53-13.55l4.97,4.96c1.03,1.03,2.23,1.59,3.6,1.68,1.37,.09,2.59-.4,3.66-1.47,1.11-1.11,1.59-2.32,1.44-3.63-.15-1.31-.75-2.47-1.78-3.5l-4.97-4.96-6.92,6.93Z"/>
    <path class="cls-1" d="M193.77,667.89l22.97-34.32,5.98,4-18.96,28.34,14.29,9.56-4,5.98-20.28-13.57Z"/>
    <path class="cls-1" d="M254.22,702.24c-2.58-1.06-4.8-2.58-6.65-4.54-1.85-1.96-3.27-4.21-4.25-6.74-.98-2.53-1.47-5.19-1.47-7.99,0-2.8,.56-5.56,1.69-8.29,1.12-2.73,2.67-5.09,4.63-7.07,1.97-1.99,4.19-3.54,6.66-4.64,2.47-1.11,5.06-1.71,7.76-1.8,2.7-.09,5.34,.39,7.92,1.46,2.6,1.07,4.83,2.59,6.68,4.55,1.85,1.96,3.27,4.21,4.25,6.74,.98,2.53,1.46,5.19,1.45,7.98s-.58,5.55-1.7,8.28-2.66,5.09-4.62,7.08-4.17,3.54-6.65,4.65c-2.48,1.11-5.06,1.71-7.76,1.8s-5.34-.4-7.95-1.47Zm2.74-6.66c2.24,.92,4.52,1.16,6.86,.73,2.33-.43,4.46-1.42,6.37-2.96,1.91-1.54,3.36-3.51,4.35-5.92,.99-2.4,1.34-4.82,1.06-7.27s-1.09-4.64-2.44-6.59c-1.35-1.95-3.14-3.38-5.38-4.3-2.24-.92-4.52-1.16-6.86-.73-2.34,.43-4.46,1.42-6.37,2.96-1.91,1.54-3.36,3.51-4.35,5.92-.99,2.4-1.34,4.82-1.06,7.27,.28,2.44,1.09,4.64,2.44,6.59,1.35,1.95,3.14,3.38,5.38,4.3Z"/>
    <path class="cls-1" d="M319.16,721.32c-2.74-.54-5.21-1.58-7.41-3.14-2.2-1.56-4.02-3.49-5.47-5.77-1.45-2.29-2.44-4.8-2.98-7.54-.54-2.74-.52-5.56,.04-8.45,.57-2.91,1.62-5.54,3.14-7.88,1.53-2.34,3.39-4.29,5.59-5.85,2.2-1.56,4.61-2.66,7.24-3.28,2.63-.62,5.31-.66,8.05-.13,3.28,.64,6.15,1.99,8.62,4.05,2.46,2.06,4.36,4.53,5.68,7.39l-6.97,2.16c-.88-1.63-2.08-3.04-3.6-4.22s-3.22-1.95-5.11-2.32c-2.37-.46-4.66-.25-6.86,.63-2.2,.88-4.08,2.27-5.64,4.16s-2.59,4.11-3.09,6.66c-.5,2.57-.38,5.02,.37,7.35,.75,2.33,1.97,4.32,3.68,5.96s3.73,2.7,6.09,3.16c1.93,.38,3.81,.3,5.65-.23,1.84-.53,3.46-1.39,4.88-2.58l5.65,4.65c-2.31,2.18-4.99,3.75-8.04,4.73-3.06,.98-6.22,1.15-9.51,.51Z"/>
    <path class="cls-1" d="M392.12,728.01l-9.37-.47-10.76-16.76-2.12,2.29-.69,13.79-7.19-.36,2.08-41.25,7.19,.36-.82,16.29,14.46-15.61,9.4,.47-17.33,18.62,15.17,22.62Z"/>
    <path class="cls-1" d="M434.21,727.34c-2.79,.19-5.44-.18-7.97-1.12-2.53-.94-4.79-2.33-6.78-4.16s-3.6-4.01-4.82-6.52c-1.23-2.51-1.94-5.23-2.14-8.18-.2-2.96,.13-5.77,1.01-8.42,.87-2.65,2.17-5.02,3.89-7.1s3.77-3.76,6.15-5.03c2.38-1.28,4.96-2.01,7.75-2.2,3.33-.23,6.46,.34,9.37,1.7s5.38,3.25,7.4,5.67l-6.18,3.88c-1.28-1.35-2.8-2.4-4.56-3.15-1.77-.75-3.61-1.05-5.53-.92-2.41,.17-4.57,.96-6.46,2.38-1.89,1.42-3.35,3.25-4.37,5.47-1.02,2.23-1.44,4.64-1.26,7.23,.18,2.61,.93,4.94,2.25,7,1.32,2.06,3.02,3.66,5.09,4.81,2.07,1.15,4.3,1.64,6.7,1.48,1.96-.13,3.76-.7,5.4-1.68s2.99-2.24,4.05-3.75l6.65,3.03c-1.67,2.7-3.85,4.91-6.55,6.64-2.7,1.73-5.72,2.71-9.05,2.94Z"/>
    <path class="cls-1" d="M491.91,675.91l7.02-1.58,9.08,40.29-7.02,1.58-4.08-18.07-16.69,3.76,4.07,18.07-7.02,1.58-9.08-40.29,7.02-1.58,3.43,15.19,16.69-3.76-3.43-15.19Z"/>
    <path class="cls-1" d="M532.28,662.27l7.57-3.37,30.5,31.63-6.98,3.11-5.4-5.61-16.17,7.19,.55,7.76-6.98,3.11-3.09-43.83Zm9,25.31l11.35-5.05-12.6-13.02,1.26,18.07Z"/>
    <path class="cls-1" d="M594.28,675.69l-23.23-34.15,5.95-4.05,23.23,34.15-5.95,4.05Z"/>
    <path class="cls-1" d="M624.36,653.27l-29.02-29.38,5.54-5.47,32.28,7.88-19.88-20.13,5.12-5.06,29.02,29.38-5.52,5.45-32.31-7.86,19.88,20.13-5.12,5.06Z"/>
  </g>
  <path class="cls-1" d="M398.89,407.48c-3.27,0-6.53-1.22-9.05-3.67l-49.18-47.56c-3.73-3.61-4.96-9.08-3.14-13.94l50.46-134.49c1.93-5.14,6.71-8.45,12.19-8.45h.09c5.52,.04,10.29,3.41,12.17,8.6l48.78,135.24c1.77,4.91,.45,10.37-3.36,13.93l-50.05,46.8c-2.51,2.34-5.7,3.51-8.89,3.51Zm-41.04-62.42l41.12,39.76,41.85-39.13-40.78-113.08-42.19,112.44Z"/>
</svg>